<?xml version="1.0" standalone="no"?><svg xmlns="http://www.w3.org/2000/svg" viewBox="0 0 1440 320"><path fill="#5DBBFF" fill-opacity="0.09" d="M0,32L21.8,53.3C43.6,75,87,117,131,144C174.5,171,218,181,262,165.3C305.5,149,349,107,393,96C436.4,85,480,107,524,144C567.3,181,611,235,655,250.7C698.2,267,742,245,785,213.3C829.1,181,873,139,916,144C960,149,1004,203,1047,229.3C1090.9,256,1135,256,1178,218.7C1221.8,181,1265,107,1309,106.7C1352.7,107,1396,181,1418,218.7L1440,256L1440,0L1418.2,0C1396.4,0,1353,0,1309,0C1265.5,0,1222,0,1178,0C1134.5,0,1091,0,1047,0C1003.6,0,960,0,916,0C872.7,0,829,0,785,0C741.8,0,698,0,655,0C610.9,0,567,0,524,0C480,0,436,0,393,0C349.1,0,305,0,262,0C218.2,0,175,0,131,0C87.3,0,44,0,22,0L0,0Z"></path></svg>